<?xml version="1.0" standalone="no"?>
<!DOCTYPE svg PUBLIC "-//W3C//DTD SVG 20010904//EN"
 "http://www.w3.org/TR/2001/REC-SVG-20010904/DTD/svg10.dtd">
<svg version="1.0" xmlns="http://www.w3.org/2000/svg"
 width="512.000000pt" height="512.000000pt" viewBox="0 0 512.000000 512.000000"
 preserveAspectRatio="xMidYMid meet">

<g transform="translate(0.000000,512.000000) scale(0.100000,-0.100000)"
fill="#000000" stroke="none">
<path d="M1000 5109 c-69 -14 -146 -56 -201 -111 -79 -79 -119 -175 -119 -289
0 -203 152 -371 361 -401 39 -5 200 -8 358 -6 280 3 287 3 324 27 100 62 102
202 3 275 -26 20 -44 21 -351 26 -300 5 -324 6 -344 24 -30 27 -28 86 2 114
23 22 29 22 326 22 174 0 310 -4 320 -10 20 -10 36 -47 46 -102 7 -46 48 -96
92 -114 111 -47 226 30 226 150 0 165 -103 315 -260 378 -56 22 -68 23 -398
25 -187 1 -360 -3 -385 -8z"/>
<path d="M3381 5104 c-250 -67 -373 -332 -264 -567 57 -120 178 -208 315 -227
91 -14 594 -12 643 1 59 17 112 74 120 132 10 64 -24 133 -80 164 -39 22 -48
23 -348 23 l-309 0 -29 29 c-16 16 -29 37 -29 46 0 24 27 72 45 79 9 3 153 6
319 6 301 0 303 0 323 -22 12 -13 25 -41 28 -63 18 -101 87 -161 177 -153 90
9 148 75 148 167 0 188 -142 356 -329 391 -87 16 -665 12 -730 -6z"/>
<path d="M1260 4224 c-349 -66 -588 -230 -750 -514 -42 -75 -110 -259 -110
-298 0 -17 -8 -22 -37 -27 -246 -42 -379 -216 -359 -470 4 -48 15 -97 27 -122
48 -99 180 -120 257 -40 42 43 53 85 46 168 -12 126 5 141 157 138 98 -3 135
7 171 48 28 31 48 89 48 140 1 172 108 387 249 500 296 236 730 194 963 -92
63 -78 125 -202 143 -290 58 -276 -61 -566 -294 -718 -84 -55 -146 -81 -243
-101 -95 -20 -164 -20 -261 -2 -151 29 -274 99 -378 217 -115 129 -124 137
-167 148 -114 31 -218 -66 -199 -186 7 -42 36 -86 120 -182 132 -149 302 -253
503 -306 170 -45 404 -37 563 20 58 20 61 19 61 -12 0 -83 63 -228 134 -311
25 -30 46 -57 46 -60 -1 -4 -35 -23 -78 -41 -122 -55 -290 -153 -517 -301
-301 -196 -319 -208 -425 -261 -226 -113 -342 -123 -546 -48 -56 21 -65 22
-105 10 -82 -25 -130 -102 -116 -188 21 -128 259 -361 466 -455 220 -101 399
-138 696 -145 390 -10 701 49 1107 209 l127 50 113 -45 c362 -145 647 -206
1008 -214 197 -5 243 -3 366 16 333 51 558 154 744 340 137 138 183 225 166
315 -9 48 -61 101 -115 117 -40 12 -49 11 -105 -10 -209 -76 -317 -67 -547 49
-92 46 -178 99 -531 328 -170 111 -340 206 -400 224 -29 8 -48 8 -80 -1 -76
-23 -118 -78 -118 -156 0 -85 31 -120 177 -194 45 -24 169 -99 275 -168 430
-281 578 -364 732 -414 48 -15 64 -24 54 -30 -33 -18 -190 -58 -293 -74 -136
-22 -476 -16 -625 9 -224 39 -453 108 -656 198 -155 68 -173 68 -325 1 -329
-145 -617 -212 -959 -220 -229 -6 -361 8 -517 53 -125 36 -126 38 -47 63 155
50 306 135 734 415 298 195 524 300 735 340 44 9 148 20 230 25 86 6 184 19
230 30 160 41 304 135 382 249 35 51 43 72 43 108 0 52 -16 88 -59 128 -24 23
-42 30 -86 34 -73 6 -100 -7 -166 -81 -90 -100 -186 -137 -359 -137 -228 -1
-360 56 -438 189 -59 101 -12 280 128 486 85 126 141 301 156 490 8 111 30
156 89 185 52 25 78 25 130 0 53 -26 85 -80 85 -146 0 -75 28 -229 56 -313 89
-261 304 -495 551 -600 443 -189 932 -58 1224 327 27 36 51 80 55 99 15 82
-21 153 -93 185 -80 35 -153 7 -221 -84 -110 -146 -257 -241 -428 -273 -152
-30 -285 -11 -429 60 -339 165 -482 576 -316 910 51 102 113 180 190 239 258
199 608 195 864 -9 140 -111 246 -326 247 -498 0 -51 20 -109 48 -140 37 -41
72 -51 174 -48 95 2 132 -7 151 -33 4 -6 6 -56 5 -111 -3 -90 -1 -103 20 -132
38 -54 80 -77 137 -77 103 0 158 66 171 205 22 255 -111 432 -358 474 -30 5
-38 10 -38 27 0 11 -15 66 -34 122 -115 341 -384 587 -736 673 -56 13 -114 18
-230 18 -137 -1 -166 -4 -252 -27 -278 -77 -498 -249 -628 -491 l-41 -75 -53
24 c-105 48 -267 48 -372 0 l-53 -24 -41 75 c-129 240 -350 413 -625 490 -71
19 -119 25 -230 28 -77 2 -151 1 -165 -1z"/>
<path d="M3749 3775 c-141 -52 -230 -140 -274 -274 -27 -83 -18 -207 22 -292
55 -118 169 -206 298 -230 78 -14 128 -7 169 25 120 91 68 269 -84 292 -74 11
-109 56 -88 115 12 35 55 59 94 51 31 -6 64 -47 64 -81 1 -42 35 -106 71 -132
27 -19 47 -24 96 -24 73 0 105 19 142 85 24 42 24 47 13 123 -24 167 -132 294
-288 342 -60 18 -186 18 -235 0z"/>
<path d="M1325 3426 c-136 -43 -236 -141 -279 -274 -28 -84 -19 -209 20 -292
35 -73 99 -144 165 -183 51 -30 146 -57 202 -57 123 0 201 124 148 234 -26 52
-68 82 -131 92 -74 11 -109 56 -88 115 12 35 55 59 94 51 31 -6 64 -47 64 -81
1 -42 35 -106 71 -132 27 -19 47 -24 96 -24 75 0 108 20 142 89 23 45 23 53
14 117 -34 214 -200 360 -407 358 -39 0 -89 -6 -111 -13z"/>
<path d="M2021 479 c-48 -10 -83 -39 -109 -90 -25 -48 -24 -96 3 -149 39 -76
230 -186 375 -217 120 -25 420 -25 540 0 104 23 205 69 287 131 105 79 133
154 91 235 -26 52 -61 80 -109 90 -54 12 -106 -6 -175 -59 -97 -75 -142 -85
-364 -85 -221 0 -263 10 -365 85 -38 28 -80 53 -94 56 -14 3 -30 7 -36 8 -5 1
-25 -1 -44 -5z"/>
</g>
</svg>
